<?xml version="1.0" encoding="us-ascii" standalone="no"?><svg xmlns="http://www.w3.org/2000/svg" xmlns:xlink="http://www.w3.org/1999/xlink" contentStyleType="text/css" height="125px" preserveAspectRatio="none" style="width:570px;height:125px;background:#FFFFFF;" version="1.1" viewBox="0 0 570 125" width="570px" zoomAndPan="magnify"><defs/><g><!--cluster MyApi--><g id="cluster_MyApi"><polygon fill="none" points="16,16,26,6,553,6,553,98,543,108,16,108,16,16" style="stroke:#181818;stroke-width:1.0;"/><line style="stroke:#181818;stroke-width:1.0;" x1="543" x2="553" y1="16" y2="6"/><line style="stroke:#181818;stroke-width:1.0;" x1="16" x2="543" y1="16" y2="16"/><line style="stroke:#181818;stroke-width:1.0;" x1="543" x2="543" y1="16" y2="108"/><text fill="#000000" font-family="sans-serif" font-size="14" font-weight="bold" lengthAdjust="spacing" textLength="49" x="256" y="31.9951">MyApi</text></g><!--entity Controllers--><g id="elem_Controllers"><rect fill="#F1F1F1" height="46.2969" rx="2.5" ry="2.5" style="stroke:#181818;stroke-width:0.5;" width="120" x="32" y="46"/><rect fill="#F1F1F1" height="10" style="stroke:#181818;stroke-width:0.5;" width="15" x="132" y="51"/><rect fill="#F1F1F1" height="2" style="stroke:#181818;stroke-width:0.5;" width="4" x="130" y="53"/><rect fill="#F1F1F1" height="2" style="stroke:#181818;stroke-width:0.5;" width="4" x="130" y="57"/><text fill="#000000" font-family="sans-serif" font-size="14" lengthAdjust="spacing" textLength="80" x="47" y="78.9951">Controllers</text></g><!--entity ApplicationServices--><g id="elem_ApplicationServices"><rect fill="#F1F1F1" height="46.2969" rx="2.5" ry="2.5" style="stroke:#181818;stroke-width:0.5;" width="183" x="187.5" y="46"/><rect fill="#F1F1F1" height="10" style="stroke:#181818;stroke-width:0.5;" width="15" x="350.5" y="51"/><rect fill="#F1F1F1" height="2" style="stroke:#181818;stroke-width:0.5;" width="4" x="348.5" y="53"/><rect fill="#F1F1F1" height="2" style="stroke:#181818;stroke-width:0.5;" width="4" x="348.5" y="57"/><text fill="#000000" font-family="sans-serif" font-size="14" lengthAdjust="spacing" textLength="143" x="202.5" y="78.9951">ApplicationServices</text></g><!--entity Repositories--><g id="elem_Repositories"><rect fill="#F1F1F1" height="46.2969" rx="2.5" ry="2.5" style="stroke:#181818;stroke-width:0.5;" width="131" x="405.5" y="46"/><rect fill="#F1F1F1" height="10" style="stroke:#181818;stroke-width:0.5;" width="15" x="516.5" y="51"/><rect fill="#F1F1F1" height="2" style="stroke:#181818;stroke-width:0.5;" width="4" x="514.5" y="53"/><rect fill="#F1F1F1" height="2" style="stroke:#181818;stroke-width:0.5;" width="4" x="514.5" y="57"/><text fill="#000000" font-family="sans-serif" font-size="14" lengthAdjust="spacing" textLength="91" x="420.5" y="78.9951">Repositories</text></g><!--link Controllers to ApplicationServices--><g id="link_Controllers_ApplicationServices"><path d="M152.264,69 C163.98,69 169.697,69 181.413,69 " fill="none" id="Controllers-to-ApplicationServices" style="stroke:#181818;stroke-width:2.0;"/><polygon fill="#181818" points="187.413,69,178.413,65,182.413,69,178.413,73,187.413,69" style="stroke:#181818;stroke-width:2.0;"/></g><!--link ApplicationServices to Repositories--><g id="link_ApplicationServices_Repositories"><path d="M370.875,69 C382.348,69 387.82,69 399.293,69 " fill="none" id="ApplicationServices-to-Repositories" style="stroke:#181818;stroke-width:1.0;"/><polygon fill="#181818" points="405.293,69,396.293,65,400.293,69,396.293,73,405.293,69" style="stroke:#181818;stroke-width:1.0;"/></g><!--SRC=[oyjFILNmhNGio5Ievk9I08Ba_Do2_BpKl185v_oyagByd9pKec8q6SU2WfpCvCIIpFoyuDIYiipaL7GLGQa5-SMP9Vb5cK0fhbekBYJ3REsmwSSYfck7R0m0]--></g></svg>
