<?xml version="1.0" encoding="us-ascii" standalone="no"?><svg xmlns="http://www.w3.org/2000/svg" xmlns:xlink="http://www.w3.org/1999/xlink" contentStyleType="text/css" height="125px" preserveAspectRatio="none" style="width:473px;height:125px;background:#FFFFFF;" version="1.1" viewBox="0 0 473 125" width="473px" zoomAndPan="magnify"><defs/><g><!--cluster BackgroundService--><g id="cluster_BackgroundService"><polygon fill="none" points="16,16,26,6,246,6,246,98,236,108,16,108,16,16" style="stroke:#181818;stroke-width:1.0;"/><line style="stroke:#181818;stroke-width:1.0;" x1="236" x2="246" y1="16" y2="6"/><line style="stroke:#181818;stroke-width:1.0;" x1="16" x2="236" y1="16" y2="16"/><line style="stroke:#181818;stroke-width:1.0;" x1="236" x2="236" y1="16" y2="108"/><text fill="#000000" font-family="sans-serif" font-size="14" font-weight="bold" lengthAdjust="spacing" textLength="154" x="50" y="31.9951">BackgroundService</text></g><!--cluster RabbitMQ--><g id="cluster_RabbitMQ"><a href="https://www.rabbitmq.com/documentation.html" target="_top" title="https://www.rabbitmq.com/documentation.html" xlink:actuate="onRequest" xlink:href="https://www.rabbitmq.com/documentation.html" xlink:show="new" xlink:title="https://www.rabbitmq.com/documentation.html" xlink:type="simple"><polygon fill="none" points="270,16,280,6,456,6,456,98,446,108,270,108,270,16" style="stroke:#181818;stroke-width:1.0;"/><line style="stroke:#181818;stroke-width:1.0;" x1="446" x2="456" y1="16" y2="6"/><line style="stroke:#181818;stroke-width:1.0;" x1="270" x2="446" y1="16" y2="16"/><line style="stroke:#181818;stroke-width:1.0;" x1="446" x2="446" y1="16" y2="108"/><text fill="#000000" font-family="sans-serif" font-size="14" font-weight="bold" lengthAdjust="spacing" textLength="80" x="319" y="31.9951">RabbitMQ</text></a></g><!--entity MessageHandlers--><g id="elem_MessageHandlers"><rect fill="#F1F1F1" height="46.2969" rx="2.5" ry="2.5" style="stroke:#181818;stroke-width:0.5;" width="163" x="66.5" y="46"/><rect fill="#F1F1F1" height="10" style="stroke:#181818;stroke-width:0.5;" width="15" x="209.5" y="51"/><rect fill="#F1F1F1" height="2" style="stroke:#181818;stroke-width:0.5;" width="4" x="207.5" y="53"/><rect fill="#F1F1F1" height="2" style="stroke:#181818;stroke-width:0.5;" width="4" x="207.5" y="57"/><text fill="#000000" font-family="sans-serif" font-size="14" lengthAdjust="spacing" textLength="123" x="81.5" y="78.9951">MessageHandlers</text></g><!--entity MyQueueEvents--><g id="elem_MyQueueEvents"><rect fill="#F1F1F1" height="46.2969" rx="2.5" ry="2.5" style="stroke:#181818;stroke-width:0.5;" width="154" x="286" y="46"/><rect fill="#F1F1F1" height="10" style="stroke:#181818;stroke-width:0.5;" width="15" x="420" y="51"/><rect fill="#F1F1F1" height="2" style="stroke:#181818;stroke-width:0.5;" width="4" x="418" y="53"/><rect fill="#F1F1F1" height="2" style="stroke:#181818;stroke-width:0.5;" width="4" x="418" y="57"/><text fill="#000000" font-family="sans-serif" font-size="14" lengthAdjust="spacing" textLength="114" x="301" y="78.9951">MyQueueEvents</text></g><!--link MessageHandlers to MyQueueEvents--><g id="link_MessageHandlers_MyQueueEvents"><path d="M229.885,69 C248.517,69 261.15,69 279.783,69 " fill="none" id="MessageHandlers-to-MyQueueEvents" style="stroke:#181818;stroke-width:1.0;"/><polygon fill="#181818" points="285.783,69,276.783,65,280.783,69,276.783,73,285.783,69" style="stroke:#181818;stroke-width:1.0;"/></g><!--SRC=[NOsn3i8W54NtznNyG65tS30nSQb9TMmwK7W1Oe4AZpR6-EzID_ks-tBlEI5gP2Uf7YR54lGTq-8KiZS0gwUYdsF0GAp5dAN1YmnwmfG1FW3NRNkJu-YexLZVMw8v7uHOrvMdtzi_UKK87LNnbIB9nS0j-MaOgc9dU7K52vwN6lA6XvsJDSaPIytnl_e5]--></g></svg>
