<?xml version="1.0" encoding="us-ascii" standalone="no"?><svg xmlns="http://www.w3.org/2000/svg" xmlns:xlink="http://www.w3.org/1999/xlink" contentStyleType="text/css" height="292px" preserveAspectRatio="none" style="width:227px;height:292px;background:#FFFFFF;" version="1.1" viewBox="0 0 227 292" width="227px" zoomAndPan="magnify"><defs/><g><!--class e01--><g id="elem_e01"><rect codeLine="3" fill="#F1F1F1" height="96.8906" id="e01" rx="2.5" ry="2.5" style="stroke:#181818;stroke-width:0.5;" width="199" x="14" y="7"/><ellipse cx="79.25" cy="23" fill="#ADD1B2" rx="11" ry="11" style="stroke:#181818;stroke-width:1.0;"/><path d="M78.0469,23.875 L79.5,23.875 L79.5,23.9844 C79.5,24.3906 79.5313,24.5469 79.6094,24.7031 C79.7656,24.9531 80.0469,25.1094 80.3438,25.1094 C80.5938,25.1094 80.8594,24.9688 81.0156,24.75 C81.1406,24.5938 81.1719,24.4375 81.1719,23.9844 L81.1719,22.0625 C81.1719,21.9063 81.1719,21.8594 81.1563,21.7031 C81.0938,21.2344 80.7813,20.9219 80.3281,20.9219 C80.0781,20.9219 79.8125,21.0625 79.6406,21.2813 C79.5313,21.4531 79.5,21.6094 79.5,22.0625 L79.5,22.1875 L78.0469,22.1875 L78.0469,19.7813 L82.0313,19.7813 L82.0313,20.6406 C82.0313,21.0469 82.0625,21.2188 82.1406,21.375 C82.3125,21.625 82.5938,21.7813 82.875,21.7813 C83.1406,21.7813 83.4063,21.6406 83.5781,21.4219 C83.6875,21.25 83.7188,21.1094 83.7188,20.6406 L83.7188,18.0938 L76.0938,18.0938 C75.6563,18.0938 75.5313,18.1094 75.375,18.2031 C75.125,18.3594 74.9688,18.6563 74.9688,18.9375 C74.9688,19.2188 75.1094,19.4688 75.3281,19.6406 C75.4844,19.75 75.6719,19.7813 76.0938,19.7813 L76.3438,19.7813 L76.3438,26.2969 L76.0938,26.2969 C75.6875,26.2969 75.5313,26.3125 75.375,26.4219 C75.125,26.5938 74.9688,26.8594 74.9688,27.1563 C74.9688,27.4219 75.1094,27.6719 75.3281,27.8281 C75.4688,27.9531 75.7031,28 76.0938,28 L84.0938,28 L84.0938,25.4219 C84.0938,24.9844 84.0625,24.8438 83.9844,24.6875 C83.8125,24.4375 83.5313,24.2813 83.25,24.2813 C82.9844,24.2813 82.7188,24.3906 82.5469,24.6406 C82.4375,24.7969 82.4063,24.9375 82.4063,25.4219 L82.4063,26.2969 L78.0469,26.2969 L78.0469,23.875 Z " fill="#000000"/><text fill="#000000" font-family="sans-serif" font-size="14" lengthAdjust="spacing" textLength="60" x="99.75" y="27.8467">MyTable</text><line style="stroke:#181818;stroke-width:0.5;" x1="15" x2="212" y1="39" y2="39"/><ellipse cx="25" cy="52.6484" fill="#000000" rx="3" ry="3" style="stroke:#000000;stroke-width:1.0;"/><text fill="#000000" font-family="sans-serif" font-size="14" lengthAdjust="spacing" textLength="173" x="34" y="55.9951">Id: number &#171;generated&#187;</text><line style="stroke:#181818;stroke-width:1.0;" x1="15" x2="212" y1="63.2969" y2="63.2969"/><ellipse cx="25" cy="76.9453" fill="#000000" rx="3" ry="3" style="stroke:#000000;stroke-width:1.0;"/><text fill="#000000" font-family="sans-serif" font-size="14" lengthAdjust="spacing" textLength="41" x="34" y="80.292">Name</text><ellipse cx="25" cy="93.2422" fill="#000000" rx="3" ry="3" style="stroke:#000000;stroke-width:1.0;"/><text fill="#000000" font-family="sans-serif" font-size="14" lengthAdjust="spacing" textLength="84" x="34" y="96.5889">Description</text></g><!--class e02--><g id="elem_e02"><rect codeLine="11" fill="#F1F1F1" height="121.1875" id="e02" rx="2.5" ry="2.5" style="stroke:#181818;stroke-width:0.5;" width="213" x="7" y="164"/><ellipse cx="70.75" cy="180" fill="#ADD1B2" rx="11" ry="11" style="stroke:#181818;stroke-width:1.0;"/><path d="M69.5469,180.875 L71,180.875 L71,180.9844 C71,181.3906 71.0313,181.5469 71.1094,181.7031 C71.2656,181.9531 71.5469,182.1094 71.8438,182.1094 C72.0938,182.1094 72.3594,181.9688 72.5156,181.75 C72.6406,181.5938 72.6719,181.4375 72.6719,180.9844 L72.6719,179.0625 C72.6719,178.9063 72.6719,178.8594 72.6563,178.7031 C72.5938,178.2344 72.2813,177.9219 71.8281,177.9219 C71.5781,177.9219 71.3125,178.0625 71.1406,178.2813 C71.0313,178.4531 71,178.6094 71,179.0625 L71,179.1875 L69.5469,179.1875 L69.5469,176.7813 L73.5313,176.7813 L73.5313,177.6406 C73.5313,178.0469 73.5625,178.2188 73.6406,178.375 C73.8125,178.625 74.0938,178.7813 74.375,178.7813 C74.6406,178.7813 74.9063,178.6406 75.0781,178.4219 C75.1875,178.25 75.2188,178.1094 75.2188,177.6406 L75.2188,175.0938 L67.5938,175.0938 C67.1563,175.0938 67.0313,175.1094 66.875,175.2031 C66.625,175.3594 66.4688,175.6563 66.4688,175.9375 C66.4688,176.2188 66.6094,176.4688 66.8281,176.6406 C66.9844,176.75 67.1719,176.7813 67.5938,176.7813 L67.8438,176.7813 L67.8438,183.2969 L67.5938,183.2969 C67.1875,183.2969 67.0313,183.3125 66.875,183.4219 C66.625,183.5938 66.4688,183.8594 66.4688,184.1563 C66.4688,184.4219 66.6094,184.6719 66.8281,184.8281 C66.9688,184.9531 67.2031,185 67.5938,185 L75.5938,185 L75.5938,182.4219 C75.5938,181.9844 75.5625,181.8438 75.4844,181.6875 C75.3125,181.4375 75.0313,181.2813 74.75,181.2813 C74.4844,181.2813 74.2188,181.3906 74.0469,181.6406 C73.9375,181.7969 73.9063,181.9375 73.9063,182.4219 L73.9063,183.2969 L69.5469,183.2969 L69.5469,180.875 Z " fill="#000000"/><text fill="#000000" font-family="sans-serif" font-size="14" lengthAdjust="spacing" textLength="77" x="91.25" y="184.8467">MyFkTable</text><line style="stroke:#181818;stroke-width:0.5;" x1="8" x2="219" y1="196" y2="196"/><ellipse cx="18" cy="209.6484" fill="#000000" rx="3" ry="3" style="stroke:#000000;stroke-width:1.0;"/><text fill="#000000" font-family="sans-serif" font-size="14" lengthAdjust="spacing" textLength="177" x="27" y="212.9951">Id : number &#171;generated&#187;</text><line style="stroke:#181818;stroke-width:1.0;" x1="8" x2="219" y1="220.2969" y2="220.2969"/><ellipse cx="18" cy="233.9453" fill="#000000" rx="3" ry="3" style="stroke:#000000;stroke-width:1.0;"/><text fill="#000000" font-family="sans-serif" font-size="14" lengthAdjust="spacing" textLength="187" x="27" y="237.292">MyTable_id : number &#171;FK&#187;</text><line style="stroke:#181818;stroke-width:1.0;" x1="8" x2="219" y1="244.5938" y2="244.5938"/><ellipse cx="18" cy="258.2422" fill="#000000" rx="3" ry="3" style="stroke:#000000;stroke-width:1.0;"/><text fill="#000000" font-family="sans-serif" font-size="14" lengthAdjust="spacing" textLength="41" x="27" y="261.5889">Name</text><ellipse cx="18" cy="274.5391" fill="#000000" rx="3" ry="3" style="stroke:#000000;stroke-width:1.0;"/><text fill="#000000" font-family="sans-serif" font-size="14" lengthAdjust="spacing" textLength="84" x="27" y="277.8857">Description</text></g><!--link e01 to e02--><g id="link_e01_e02"><path codeLine="20" d="M113.5,112.382 C113.5,130.904 113.5,126.221 113.5,145.707 " fill="none" id="e01-e02" style="stroke:#181818;stroke-width:1.0;stroke-dasharray:7.0,7.0;"/><line style="stroke:#181818;stroke-width:1.0;" x1="109.5" x2="117.5" y1="108.382" y2="108.382"/><line style="stroke:#181818;stroke-width:1.0;" x1="109.5" x2="117.5" y1="111.382" y2="111.382"/><line style="stroke:#181818;stroke-width:1.0;" x1="113.5" x2="113.5" y1="112.382" y2="104.382"/><line style="stroke:#181818;stroke-width:1.0;" x1="113.5" x2="119.5" y1="155.707" y2="163.707"/><line style="stroke:#181818;stroke-width:1.0;" x1="113.5" x2="107.5" y1="155.707" y2="163.707"/><line style="stroke:#181818;stroke-width:1.0;" x1="113.5" x2="113.5" y1="155.707" y2="163.707"/><ellipse cx="113.5" cy="149.707" fill="none" rx="4" ry="4" style="stroke:#181818;stroke-width:1.0;"/></g><!--SRC=[ZOyz2y8m68Jt_8gZOw557QLqaa8fEhbBQbuqjFaWYKDe_U_Qu50dtGxkUExE3r9RxhZ2A3M5Q0d6XRjXZ7IG8I8xnZFlHyh0FMYpnSI07AtOGpzKJmvLTIDDZWSITVqsYo8bJbnH4WVoLoTja4Qp9rk3cs6DtYKqybRW1_ipwIA_aattJ_roOPxBqanBvGi0]--></g></svg>
