<?xml version="1.0" encoding="us-ascii" standalone="no"?><svg xmlns="http://www.w3.org/2000/svg" xmlns:xlink="http://www.w3.org/1999/xlink" contentStyleType="text/css" height="230px" preserveAspectRatio="none" style="width:382px;height:230px;background:#FFFFFF;" version="1.1" viewBox="0 0 382 230" width="382px" zoomAndPan="magnify"><defs/><g><!--cluster MyMicroservice--><g id="cluster_MyMicroservice"><polygon fill="none" points="16,16,26,6,365,6,365,203,355,213,16,213,16,16" style="stroke:#181818;stroke-width:1.0;"/><line style="stroke:#181818;stroke-width:1.0;" x1="355" x2="365" y1="16" y2="6"/><line style="stroke:#181818;stroke-width:1.0;" x1="16" x2="355" y1="16" y2="16"/><line style="stroke:#181818;stroke-width:1.0;" x1="355" x2="355" y1="16" y2="213"/><text fill="#000000" font-family="sans-serif" font-size="14" font-weight="bold" lengthAdjust="spacing" textLength="125" x="124" y="31.9951">MyMicroservice</text></g><!--entity MyApi--><g id="elem_MyApi"><a href="MyApi.svg" target="_top" title="MyApi.svg" xlink:actuate="onRequest" xlink:href="MyApi.svg" xlink:show="new" xlink:title="MyApi.svg" xlink:type="simple"><rect fill="#F1F1F1" height="46.2969" rx="2.5" ry="2.5" style="stroke:#181818;stroke-width:0.5;" width="84" x="265" y="46"/><rect fill="#F1F1F1" height="10" style="stroke:#181818;stroke-width:0.5;" width="15" x="329" y="51"/><rect fill="#F1F1F1" height="2" style="stroke:#181818;stroke-width:0.5;" width="4" x="327" y="53"/><rect fill="#F1F1F1" height="2" style="stroke:#181818;stroke-width:0.5;" width="4" x="327" y="57"/><text fill="#000000" font-family="sans-serif" font-size="14" lengthAdjust="spacing" textLength="44" x="280" y="78.9951">MyApi</text></a></g><!--entity MyBackgroundService--><g id="elem_MyBackgroundService"><a href="MyBackgroundService.svg" target="_top" title="MyBackgroundService.svg" xlink:actuate="onRequest" xlink:href="MyBackgroundService.svg" xlink:show="new" xlink:title="MyBackgroundService.svg" xlink:type="simple"><rect fill="#F1F1F1" height="46.2969" rx="2.5" ry="2.5" style="stroke:#181818;stroke-width:0.5;" width="198" x="32" y="46"/><rect fill="#F1F1F1" height="10" style="stroke:#181818;stroke-width:0.5;" width="15" x="210" y="51"/><rect fill="#F1F1F1" height="2" style="stroke:#181818;stroke-width:0.5;" width="4" x="208" y="53"/><rect fill="#F1F1F1" height="2" style="stroke:#181818;stroke-width:0.5;" width="4" x="208" y="57"/><text fill="#000000" font-family="sans-serif" font-size="14" lengthAdjust="spacing" textLength="158" x="47" y="78.9951">MyBackgroundService</text></a></g><!--entity MyDatabase--><g id="elem_MyDatabase"><a href="MyDatabase.svg" target="_top" title="MyDatabase.svg" xlink:actuate="onRequest" xlink:href="MyDatabase.svg" xlink:show="new" xlink:title="MyDatabase.svg" xlink:type="simple"><path d="M159,162 C159,152 213,152 213,152 C213,152 267,152 267,162 L267,187.2969 C267,197.2969 213,197.2969 213,197.2969 C213,197.2969 159,197.2969 159,187.2969 L159,162 " fill="#F1F1F1" style="stroke:#181818;stroke-width:0.5;"/><path d="M159,162 C159,172 213,172 213,172 C213,172 267,172 267,162 " fill="none" style="stroke:#181818;stroke-width:0.5;"/><text fill="#000000" font-family="sans-serif" font-size="14" lengthAdjust="spacing" textLength="88" x="169" y="188.9951">MyDatabase</text></a></g><!--link MyApi to MyDatabase--><g id="link_MyApi_MyDatabase"><path d="M286.835,92.203 C270.867,109.785 252.7179,129.7681 236.8429,147.2471 " fill="none" id="MyApi-to-MyDatabase" style="stroke:#181818;stroke-width:1.0;"/><polygon fill="#181818" points="232.809,151.6886,241.8209,147.7156,236.1706,147.9873,235.8989,142.337,232.809,151.6886" style="stroke:#181818;stroke-width:1.0;"/></g><!--link MyBackgroundService to MyDatabase--><g id="link_MyBackgroundService_MyDatabase"><path d="M148.591,92.203 C162.521,109.785 178.1451,129.5067 191.9931,146.9857 " fill="none" id="MyBackgroundService-to-MyDatabase" style="stroke:#181818;stroke-width:1.0;"/><polygon fill="#181818" points="195.719,151.6886,193.2653,142.1503,192.614,147.7695,186.9948,147.1182,195.719,151.6886" style="stroke:#181818;stroke-width:1.0;"/></g><!--SRC=[yyjFILNmhVJDJ2xABqujAijCJbMevb800kVyt8BylDIy4g2qOq6cGdGqcDOhBakFZSLGuPIOd9rUb5-Qbn8CDGMa7aCKIRTBOabYKc8no7Ou4wG7ne4ghUK20eWBT5Foo_DqxP0qS66p65CP0000]--></g></svg>
